<svg width="23" height="25" viewBox="0 0 23 25" fill="none" xmlns="http://www.w3.org/2000/svg">
<path d="M10.0805 24.4382C6.95391 21.2953 0 13.678 0 9.39932C0 4.20816 5.14865 0 11.5 0C17.849 0 23 4.20816 23 9.39932C23 13.678 15.9922 21.2953 12.9195 24.4382C12.1828 25.1873 10.8172 25.1873 10.0805 24.4382V24.4382ZM11.5 12.5324C13.6143 12.5324 15.3333 11.1274 15.3333 9.39932C15.3333 7.67122 13.6143 6.26622 11.5 6.26622C9.38568 6.26622 7.66667 7.67122 7.66667 9.39932C7.66667 11.1274 9.38568 12.5324 11.5 12.5324Z" fill="#E52346"/>
</svg>
