<svg xmlns="http://www.w3.org/2000/svg" width="22" height="28" viewBox="0 0 22 28">
  <g id="__TEMP__SVG__" transform="translate(-5.625 -2.25)">
    <path id="Path_255" data-name="Path 255" d="M27.375,14.25h-8.75a3,3,0,0,1-3-3V2.5a.25.25,0,0,0-.25-.25H9.625a4,4,0,0,0-4,4v20a4,4,0,0,0,4,4h14a4,4,0,0,0,4-4V14.5a.25.25,0,0,0-.25-.25Zm-5.75,10h-10a1,1,0,1,1,0-2h10a1,1,0,0,1,0,2Zm0-5h-10a1,1,0,0,1,0-2h10a1,1,0,0,1,0,2Z" transform="translate(0)" fill="#fff"/>
    <path id="Path_256" data-name="Path 256" d="M29.476,13.26,19.365,3.149a.141.141,0,0,0-.24.1v9.127A1.125,1.125,0,0,0,20.25,13.5h9.127a.141.141,0,0,0,.1-.24Z" transform="translate(-2.75)" fill="#fff"/>
  </g>
</svg>
